<svg width="1576" height="1220" xmlns="http://www.w3.org/2000/svg" xmlns:xlink="http://www.w3.org/1999/xlink" xml:space="preserve" overflow="hidden"><defs><radialGradient cx="900546" cy="901931" r="1274544" gradientUnits="userSpaceOnUse" spreadMethod="pad" id="fill0" gradientTransform="matrix(0.000360892 0 0 0.000360892 1388 798)"><stop offset="0" stop-color="#7030A0" stop-opacity="1"/><stop offset="0.99" stop-color="#002060" stop-opacity="1"/><stop offset="1" stop-color="#002060" stop-opacity="1"/></radialGradient><radialGradient cx="900546" cy="901931" r="1274544" gradientUnits="userSpaceOnUse" spreadMethod="pad" id="fill1" gradientTransform="matrix(0.000360892 0 0 0.000360892 1388 798)"><stop offset="0" stop-color="#7030A0" stop-opacity="1"/><stop offset="0.99" stop-color="#002060" stop-opacity="1"/><stop offset="1" stop-color="#002060" stop-opacity="1"/></radialGradient><radialGradient cx="719051" cy="719051" r="1016892" fx="719051" fy="719051" gradientUnits="userSpaceOnUse" spreadMethod="pad" id="fill2" gradientTransform="matrix(0.000360892 0 0 0.000360892 2438 864)"><stop offset="0" stop-color="#7030A0" stop-opacity="1"/><stop offset="0.99" stop-color="#002060" stop-opacity="1"/><stop offset="1" stop-color="#002060" stop-opacity="1"/></radialGradient><radialGradient cx="719051" cy="719051" r="1016892" fx="719051" fy="719051" gradientUnits="userSpaceOnUse" spreadMethod="pad" id="fill3" gradientTransform="matrix(0.000360892 0 0 0.000360892 2438 864)"><stop offset="0" stop-color="#7030A0" stop-opacity="1"/><stop offset="0.99" stop-color="#002060" stop-opacity="1"/><stop offset="1" stop-color="#002060" stop-opacity="1"/></radialGradient></defs><g transform="translate(-1384 -485)"><g><path d="M1388 1123.5C1388 943.731 1533.51 798 1713 798 1892.49 798 2038 943.731 2038 1123.5 2038 1303.27 1892.49 1449 1713 1449 1533.51 1449 1388 1303.27 1388 1123.5Z" fill="url(#fill0)" fill-rule="evenodd"/><path d="M1388 1123.5C1388 943.731 1533.51 798 1713 798 1892.49 798 2038 943.731 2038 1123.5 2038 1303.27 1892.49 1449 1713 1449 1533.51 1449 1388 1303.27 1388 1123.5Z" fill="url(#fill1)" fill-rule="evenodd"/><path d="M2438 1123.5C2438 980.182 2554.18 864 2697.5 864 2840.82 864 2957 980.182 2957 1123.5 2957 1266.82 2840.82 1383 2697.5 1383 2554.18 1383 2438 1266.82 2438 1123.5Z" fill="url(#fill2)" fill-rule="evenodd"/><path d="M2438 1123.5C2438 980.182 2554.18 864 2697.5 864 2840.82 864 2957 980.182 2957 1123.5 2957 1266.82 2840.82 1383 2697.5 1383 2554.18 1383 2438 1266.82 2438 1123.5Z" fill="url(#fill3)" fill-rule="evenodd"/><path d="M2586.05 1502.05 2551.67 1527.92 2523.65 1546.36 2495.25 1563.37 2466.43 1579 2437.25 1593.24 2407.77 1606.1 2378.03 1617.56 2348.1 1627.63 2318.03 1636.29 2287.87 1643.54 2257.68 1649.39 2227.52 1653.81 2197.43 1656.81 2167.47 1658.38 2137.7 1658.52 2108.17 1657.23 2078.94 1654.48 2050.07 1650.29 2021.6 1644.64 1993.61 1637.53 1966.13 1628.95 1939.3 1618.92 1926.02 1613.32 1912.97 1607.37 1900.1 1601.05 1887.41 1594.36 1874.91 1587.29 1862.6 1579.86 1850.49 1572.05 1838.6 1563.87 1826.92 1555.32 1815.46 1546.39 1804.24 1537.09 1793.26 1527.41 1782.53 1517.36 1772.16 1507.05 1786.7 1492.42 1796.96 1502.63 1796.74 1502.41 1807.24 1512.25 1807.01 1512.04 1817.76 1521.51 1817.53 1521.31 1828.51 1530.41 1828.27 1530.22 1839.48 1538.95 1839.23 1538.77 1850.66 1547.14 1850.41 1546.96 1862.05 1554.97 1861.8 1554.8 1873.65 1562.44 1873.39 1562.28 1885.44 1569.56 1885.18 1569.41 1897.42 1576.32 1897.16 1576.18 1909.59 1582.73 1909.32 1582.6 1921.93 1588.79 1921.67 1588.66 1934.45 1594.49 1934.18 1594.37 1947.12 1599.84 1946.72 1599.68 1973.08 1609.53 1972.55 1609.34 1999.49 1617.76 1998.95 1617.6 2026.42 1624.58 2025.89 1624.46 2053.82 1630.01 2053.3 1629.92 2081.65 1634.03 2081.13 1633.97 2109.85 1636.67 2109.34 1636.63 2138.36 1637.91 2137.85 1637.9 2167.13 1637.76 2166.63 1637.78 2196.1 1636.23 2195.62 1636.26 2225.23 1633.31 2224.76 1633.37 2254.46 1629.01 2253.99 1629.09 2283.73 1623.34 2283.27 1623.44 2312.98 1616.29 2312.54 1616.41 2342.18 1607.87 2341.74 1608.01 2371.25 1598.09 2370.82 1598.24 2400.14 1586.94 2399.73 1587.11 2428.8 1574.43 2428.4 1574.61 2457.18 1560.56 2456.79 1560.76 2485.22 1545.34 2484.84 1545.56 2512.86 1528.78 2512.49 1529.01 2540.06 1510.87 2539.53 1511.24 2573.65 1485.57ZM2538.46 1461.39 2650.3 1433.39 2605.59 1539.66Z" fill="#7F7F7F" fill-rule="nonzero" fill-opacity="1"/><path d="M1837.82 673.206 1852.93 664.313 1869.31 655.891 1885.68 647.923 1918.51 633.241 1951.68 620.112 1985.09 608.55 2018.67 598.552 2052.36 590.112 2086.1 583.224 2119.84 577.884 2153.5 574.086 2187.04 571.826 2220.4 571.097 2253.51 571.896 2286.31 574.217 2318.74 578.057 2350.75 583.409 2382.27 590.269 2413.25 598.634 2443.62 608.498 2473.31 619.857 2502.22 632.678 2516.47 639.69 2530.46 647.042 2544.23 654.765 2557.78 662.857 2571.1 671.318 2584.19 680.147 2597.03 689.343 2609.62 698.906 2621.95 708.835 2634.01 719.129 2645.8 729.787 2657.3 740.809 2668.51 752.192 2679.42 763.938 2690.03 776.043 2700.32 788.509 2710.29 801.332 2719.83 814.391 2703.19 826.564 2693.73 813.628 2693.91 813.87 2684.13 801.286 2684.32 801.522 2674.22 789.29 2674.42 789.521 2664.01 777.642 2664.21 777.865 2653.5 766.341 2653.71 766.558 2642.71 755.387 2642.92 755.597 2631.64 744.782 2631.85 744.985 2620.29 734.526 2620.51 734.721 2608.67 724.619 2608.9 724.807 2596.8 715.062 2597.03 715.242 2584.67 705.855 2584.9 706.028 2572.3 697 2572.53 697.164 2559.69 688.496 2559.93 688.652 2546.84 680.344 2547.08 680.493 2533.78 672.545 2534.02 672.686 2520.49 665.1 2520.74 665.233 2507 658.01 2507.24 658.135 2493.3 651.275 2493.67 651.448 2465.2 638.82 2465.69 639.025 2436.49 627.856 2436.99 628.032 2407.12 618.33 2407.62 618.478 2377.14 610.248 2377.64 610.368 2346.61 603.615 2347.1 603.71 2315.58 598.44 2316.07 598.51 2284.13 594.728 2284.61 594.774 2252.29 592.487 2252.77 592.509 2220.14 591.722 2220.61 591.722 2187.73 592.441 2188.2 592.42 2155.12 594.649 2155.58 594.607 2122.38 598.353 2122.83 598.291 2089.55 603.56 2090 603.478 2056.71 610.274 2057.15 610.174 2023.9 618.504 2024.34 618.384 1991.19 628.253 1991.62 628.115 1958.64 639.529 1959.06 639.372 1926.31 652.336 1926.72 652.162 1894.25 666.682 1894.55 666.54 1878.44 674.385 1878.64 674.284 1862.63 682.521 1863.14 682.239 1848.27 690.983ZM1878.99 720.473 1764.18 731.023 1824.63 632.842Z" fill="#7F7F7F" fill-rule="nonzero" fill-opacity="1"/></g></g></svg>