<svg width="422" height="449" xmlns="http://www.w3.org/2000/svg" xmlns:xlink="http://www.w3.org/1999/xlink" xml:space="preserve" overflow="hidden"><defs><clipPath id="clip0"><rect x="1035" y="1553" width="422" height="449"/></clipPath><clipPath id="clip1"><rect x="1035" y="1553" width="422" height="449"/></clipPath></defs><g clip-path="url(#clip0)" transform="translate(-1035 -1553)"><g clip-path="url(#clip1)"><path d="M1038 1779.5 1095.73 1736.89 1066.07 1669.75 1136.4 1663.09 1142.75 1589.41 1206.83 1620.48 1247.5 1560 1288.17 1620.48 1352.25 1589.41 1358.6 1663.09 1428.93 1669.75 1399.27 1736.89 1457 1779.5 1399.27 1822.11 1428.93 1889.25 1358.6 1895.91 1352.25 1969.59 1288.17 1938.52 1247.5 1999 1206.83 1938.52 1142.75 1969.59 1136.4 1895.91 1066.07 1889.25 1095.73 1822.11Z" fill="#B97A20" fill-rule="evenodd" fill-opacity="1"/><path d="M1038 1775.5 1146.86 1761.62 1045.14 1718.69 1153.72 1734.8 1066.07 1665.75 1166.97 1710.76 1099.36 1620.29 1185.71 1691.13 1142.75 1585.41 1208.66 1677.24 1193.28 1563.48 1234.25 1670.06 1247.5 1556 1260.75 1670.06 1301.72 1563.48 1286.34 1677.24 1352.25 1585.41 1309.29 1691.13 1395.64 1620.29 1328.03 1710.76 1428.93 1665.75 1341.28 1734.8 1449.86 1718.69 1348.14 1761.62 1457 1775.5 1348.14 1789.38 1449.86 1832.31 1341.28 1816.2 1428.93 1885.25 1328.03 1840.24 1395.64 1930.71 1309.29 1859.87 1352.25 1965.59 1286.34 1873.76 1301.72 1987.52 1260.75 1880.94 1247.5 1995 1234.25 1880.94 1193.28 1987.52 1208.66 1873.76 1142.75 1965.59 1185.71 1859.87 1099.36 1930.71 1166.97 1840.24 1066.07 1885.25 1153.72 1816.2 1045.14 1832.31 1146.86 1789.38Z" fill="#FFC000" fill-rule="evenodd" fill-opacity="1"/></g></g></svg>