<svg width="2342" height="1540" xmlns="http://www.w3.org/2000/svg" xmlns:xlink="http://www.w3.org/1999/xlink" xml:space="preserve" overflow="hidden"><g transform="translate(-50 -742)"><g><path d="M12.0842-6.56007 433.632 769.967 409.464 783.087-12.0842 6.56007ZM451.24 744.762 454.348 836.947 378.735 784.122Z" fill="#000000" fill-rule="nonzero" fill-opacity="1" transform="matrix(1 0 0 -1 847 2136.95)"/><path d="M3.12771-13.3895 945.31 206.698 939.055 233.477-3.12771 13.3895ZM938.176 176.791 1009.13 235.726 919.409 257.128Z" fill="#000000" fill-rule="nonzero" fill-opacity="1" transform="matrix(1 0 0 -1 856 2137.73)"/><path d="M846.275 2145.55 254.441 1903.73 264.843 1878.28 856.676 2120.1ZM256.768 1934.39 196 1865 287.973 1858.02Z" fill="#000000" fill-rule="nonzero" fill-opacity="1"/><path d="M827.728 2142.78 238.207 1617.98 256.493 1597.44 846.013 2122.24ZM230.193 1647.67 196 1562 285.048 1586.05Z" fill="#000000" fill-rule="nonzero" fill-opacity="1"/><path d="M854.486 2144.8 249.877 1816.86 262.988 1792.69 867.597 2120.63ZM248.852 1847.59 196 1772 288.186 1775.07Z" fill="#000000" fill-rule="nonzero" fill-opacity="1"/><path d="M833.311 2146.18 243.53 1717.54 259.698 1695.3 849.479 2123.94ZM238.485 1747.87 196 1666 286.988 1681.13Z" fill="#000000" fill-rule="nonzero" fill-opacity="1"/><path d="M840.874 2126.45 288.83 1514.26 309.252 1495.85 861.297 2108.03ZM277.615 1542.89 253 1454 338.883 1487.64Z" fill="#000000" fill-rule="nonzero" fill-opacity="1"/><path d="M829.979 2124.41 356.168 1401.05 379.173 1385.98 852.983 2109.34ZM340.698 1427.62 330 1336 409.711 1382.41Z" fill="#000000" fill-rule="nonzero" fill-opacity="1"/><path d="M826.52 2113.37 658.587 1092.07 685.723 1087.61 853.656 2108.91ZM633.682 1110.1 661 1022 715.089 1096.71Z" fill="#000000" fill-rule="nonzero" fill-opacity="1"/><path d="M828.25 2111.39 400.133 1306.16 424.415 1293.25 852.532 2098.48ZM382.307 1331.21 380 1239 455.151 1292.48Z" fill="#000000" fill-rule="nonzero" fill-opacity="1"/><path d="M828.021 2114.79 470.42 1244.81 495.855 1234.36 853.456 2104.34ZM450.212 1267.99 457 1176 526.517 1236.62Z" fill="#000000" fill-rule="nonzero" fill-opacity="1"/><path d="M837.674 2108.46 550.819 1163.78 577.133 1155.79 863.988 2100.47ZM528.5 1184.93 544 1094 607.441 1160.96Z" fill="#000000" fill-rule="nonzero" fill-opacity="1"/><path d="M837 2123.25 1978.25 2123.25 1978.25 2150.75 837 2150.75ZM1964.5 2095.75 2047 2137 1964.5 2178.25Z" fill="#000000" fill-rule="nonzero" fill-opacity="1"/><path d="M13.75-4.27724e-06 13.7503 1091.41-13.7497 1091.41-13.75 4.27724e-06ZM41.2503 1077.66 0.000360892 1160.16-41.2497 1077.66Z" fill="#000000" fill-rule="nonzero" fill-opacity="1" transform="matrix(1 0 0 -1 847 2142.16)"/><text fill="#000000" fill-opacity="1" font-family="Cambria Math,Cambria Math_MSFontService,sans-serif" font-style="normal" font-variant="normal" font-weight="400" font-stretch="normal" font-size="165" text-anchor="start" direction="ltr" writing-mode="lr-tb" unicode-bidi="normal" text-decoration="none" transform="matrix(1 0 0 1 788.585 951)">𝑚</text><text fill="#000000" fill-opacity="1" font-family="Cambria Math,Cambria Math_MSFontService,sans-serif" font-style="normal" font-variant="normal" font-weight="400" font-stretch="normal" font-size="120" text-anchor="start" direction="ltr" writing-mode="lr-tb" unicode-bidi="normal" text-decoration="none" transform="matrix(1 0 0 1 922.831 985)">1</text><text fill="#000000" fill-opacity="1" font-family="Cambria Math,Cambria Math_MSFontService,sans-serif" font-style="normal" font-variant="normal" font-weight="400" font-stretch="normal" font-size="165" text-anchor="start" direction="ltr" writing-mode="lr-tb" unicode-bidi="normal" text-decoration="none" transform="matrix(1 0 0 1 2104.29 2173)">𝑚</text><text fill="#000000" fill-opacity="1" font-family="Cambria Math,Cambria Math_MSFontService,sans-serif" font-style="normal" font-variant="normal" font-weight="400" font-stretch="normal" font-size="120" text-anchor="start" direction="ltr" writing-mode="lr-tb" unicode-bidi="normal" text-decoration="none" transform="matrix(1 0 0 1 2242.36 2207)">2</text><path d="M7.08363-11.7849 732.507 424.248 718.339 447.818-7.08363 11.7849ZM734.889 393.595 784.348 471.451 692.387 464.304Z" fill="#000000" fill-rule="nonzero" fill-opacity="1" transform="matrix(1 0 0 -1 847 2137.45)"/><text fill="#000000" fill-opacity="1" font-family="Cambria Math,Cambria Math_MSFontService,sans-serif" font-style="normal" font-variant="normal" font-weight="400" font-stretch="normal" font-size="165" text-anchor="start" direction="ltr" writing-mode="lr-tb" unicode-bidi="normal" text-decoration="none" transform="matrix(1 0 0 1 1630.39 1654)">𝑃</text><text fill="#000000" fill-opacity="1" font-family="Cambria Math,Cambria Math_MSFontService,sans-serif" font-style="normal" font-variant="normal" font-weight="400" font-stretch="normal" font-size="120" text-anchor="start" direction="ltr" writing-mode="lr-tb" unicode-bidi="normal" text-decoration="none" transform="matrix(1 0 0 1 1715.23 1688)">𝑜𝑟𝑏</text><text fill="#000000" fill-opacity="1" font-family="Cambria Math,Cambria Math_MSFontService,sans-serif" font-style="normal" font-variant="normal" font-weight="400" font-stretch="normal" font-size="165" text-anchor="start" direction="ltr" writing-mode="lr-tb" unicode-bidi="normal" text-decoration="none" transform="matrix(1 0 0 1 1913.05 1906)">𝑒</text><text fill="#000000" fill-opacity="1" font-family="Cambria Math,Cambria Math_MSFontService,sans-serif" font-style="normal" font-variant="normal" font-weight="400" font-stretch="normal" font-size="165" text-anchor="start" direction="ltr" writing-mode="lr-tb" unicode-bidi="normal" text-decoration="none" transform="matrix(1 0 0 1 1309.39 1259)">𝑍</text><text fill="#000000" fill-opacity="1" font-family="Posterama,Posterama_MSFontService,sans-serif" font-style="normal" font-variant="normal" font-weight="400" font-stretch="normal" font-size="83" text-anchor="start" direction="ltr" writing-mode="lr-tb" unicode-bidi="normal" text-decoration="none" transform="matrix(0.899519 -0.436882 0.436882 0.899519 143.383 1077)">Many </text><text fill="#000000" fill-opacity="1" font-family="Posterama,Posterama_MSFontService,sans-serif" font-style="normal" font-variant="normal" font-weight="400" font-stretch="normal" font-size="83" text-anchor="start" direction="ltr" writing-mode="lr-tb" unicode-bidi="normal" text-decoration="none" transform="matrix(0.899519 -0.436882 0.436882 0.899519 186.634 1166)">settings </text><text fill="#000000" fill-opacity="1" font-family="Posterama,Posterama_MSFontService,sans-serif" font-style="normal" font-variant="normal" font-weight="400" font-stretch="normal" font-size="83" text-anchor="start" direction="ltr" writing-mode="lr-tb" unicode-bidi="normal" text-decoration="none" transform="matrix(0.899519 -0.436882 0.436882 0.899519 229.885 1255)">variations</text></g></g></svg>